<svg xmlns="http://www.w3.org/2000/svg" xmlns:xlink="http://www.w3.org/1999/xlink" version="1.1" x="0px" y="0px" viewBox="0 0 100 125" enable-background="new 0 0 100 100" xml:space="preserve"><path fill="none" d="M37,51.6c0,2.4,0.5,4.8,1.3,6.9h5.3c10.7,0,19.5-8.8,19.5-19.5c0-2.4-0.5-4.8-1.3-6.9h-5.3  C45.7,32.2,37,40.9,37,51.6z"/><path fill="#000000" d="M20.3,55.8L16.4,67c-0.2,0.5,0.4,1,0.8,0.7l15.7-9.2h5.4c-0.8-2.2-1.3-4.5-1.3-6.9  c0-10.7,8.8-19.5,19.5-19.5h5.3c-2.8-7.3-9.9-12.5-18.2-12.5H30.3c-10.7,0-19.5,8.8-19.5,19.5C10.8,46.1,14.7,52.3,20.3,55.8z"/><path fill="#000000" d="M43.6,58.6h-5.3c2.8,7.3,9.9,12.5,18.2,12.5h10.7l15.7,9.2c0.5,0.2,1-0.2,0.8-0.7l-3.9-11.3  c5.6-3.4,9.5-9.6,9.5-16.7c0-10.7-8.8-19.5-19.5-19.5h-7.9c0.8,2.2,1.3,4.5,1.3,6.9C63,49.8,54.3,58.6,43.6,58.6z"/><text x="0" y="115" fill="#000000" font-size="5px" font-weight="bold" font-family="'Helvetica Neue', Helvetica, Arial-Unicode, Arial, Sans-serif">Created by Marie Van den Broeck</text><text x="0" y="120" fill="#000000" font-size="5px" font-weight="bold" font-family="'Helvetica Neue', Helvetica, Arial-Unicode, Arial, Sans-serif">from the Noun Project</text></svg>