<svg xmlns="http://www.w3.org/2000/svg" xmlns:xlink="http://www.w3.org/1999/xlink" version="1.1" x="0" y="0" viewBox="0 0 100 125" enable-background="new 0 0 100 100" xml:space="preserve">
  <path d="M46.05 53.25c0.05 0.22 0.11 0.43 0.17 0.62l3.5 9.61c1.56-1.23 2.97-2.76 4.21-4.62 0.03-0.05 0.06-0.11 0.1-0.16 1.66-2.6 2.43-6.48 2.43-9.04l0-27.26c0-2.61-0.79-6.61-2.53-9.22C50.29 7.76 45.27 5 39 5c-6.28 0-11.3 2.76-14.93 8.19 -1.74 2.6-2.53 6.59-2.53 9.21v27.26c0 2.61 0.79 6.61 2.53 9.21 3.1 4.64 7.21 7.31 12.26 8l-3.02-8.29c-0.49-1.36-0.9-3.09-1.1-4.9 -0.04-0.06-0.08-0.11-0.12-0.17 -0.36-0.53-0.9-2.47-0.9-3.85l0-27.25c0-1.38 0.55-3.31 0.9-3.85 1.85-2.77 3.85-3.9 6.91-3.9 3.06 0 5.06 1.13 6.91 3.9 0.36 0.54 0.91 2.48 0.91 3.86l0 27.26C46.81 50.87 46.39 52.51 46.05 53.25z"/>
  <path d="M50.08 91.27c5.27 3.86 10.93 4.73 16.83 2.58 5.9-2.15 9.68-6.45 11.23-12.8 0.75-3.03 0.12-7.06-0.77-9.52l-9.32-25.6c-0.89-2.45-3-5.94-5.52-7.79 -1.31-0.96-2.65-1.74-4.01-2.33v12.39c0.19 0.35 0.35 0.7 0.47 1.02l9.32 25.61c0.47 1.3 0.63 3.31 0.47 3.93 -0.79 3.24-2.29 4.98-5.16 6.03 -2.88 1.05-5.14 0.67-7.83-1.3 -0.51-0.38-1.69-2.01-2.16-3.31l-9.33-25.62c-0.47-1.29-0.62-3.31-0.47-3.93 0.24-0.97 0.55-1.79 0.93-2.52l0-12.2c-5.36 2.25-8.83 6.42-10.3 12.42 -0.74 3.05-0.12 7.07 0.77 9.53l9.33 25.61C45.45 85.94 47.56 89.42 50.08 91.27z"/>
  <text x="0" y="115" fill="#000000" font-size="5" font-weight="bold" font-family="'Helvetica Neue', Helvetica, Arial-Unicode, Arial, Sans-serif">
    Created by To Uyen
  </text>
  <text x="0" y="120" fill="#000000" font-size="5" font-weight="bold" font-family="'Helvetica Neue', Helvetica, Arial-Unicode, Arial, Sans-serif">
    from the Noun Project
  </text>
</svg>
