<?xml version="1.0" encoding="UTF-8" standalone="no"?>
<!-- Created with Inkscape (http://www.inkscape.org/) -->

<svg
   xmlns:dc="http://purl.org/dc/elements/1.1/"
   xmlns:cc="http://creativecommons.org/ns#"
   xmlns:rdf="http://www.w3.org/1999/02/22-rdf-syntax-ns#"
   xmlns:svg="http://www.w3.org/2000/svg"
   xmlns="http://www.w3.org/2000/svg"
   xmlns:sodipodi="http://sodipodi.sourceforge.net/DTD/sodipodi-0.dtd"
   xmlns:inkscape="http://www.inkscape.org/namespaces/inkscape"
   id="svg3287"
   version="1.1"
   inkscape:version="0.48.4 r9939"
   width="210.9362"
   height="186"
   sodipodi:docname="simple_abc_black.svg">
  <metadata
     id="metadata3293">
    <rdf:RDF>
      <cc:Work
         rdf:about="">
        <dc:format>image/svg+xml</dc:format>
        <dc:type
           rdf:resource="http://purl.org/dc/dcmitype/StillImage" />
        <dc:title></dc:title>
      </cc:Work>
    </rdf:RDF>
  </metadata>
  <defs
     id="defs3291" />
  <sodipodi:namedview
     pagecolor="#ffffff"
     bordercolor="#666666"
     borderopacity="1"
     objecttolerance="10"
     gridtolerance="10"
     guidetolerance="10"
     inkscape:pageopacity="0"
     inkscape:pageshadow="2"
     inkscape:window-width="1280"
     inkscape:window-height="743"
     id="namedview3289"
     showgrid="false"
     fit-margin-top="0"
     fit-margin-left="0"
     fit-margin-right="0"
     fit-margin-bottom="0"
     inkscape:zoom="1.5914634"
     inkscape:cx="109.62272"
     inkscape:cy="95.70882"
     inkscape:window-x="0"
     inkscape:window-y="0"
     inkscape:window-maximized="1"
     inkscape:current-layer="svg3287" />
  <path
     style="fill:#000000"
     d="m 89.406248,184.54145 c -2.2,-0.74969 -15.925,-5.03241 -30.5,-9.51715 -14.575,-4.48473 -31.32641,-9.64085 -37.22536,-11.45803 C 9.4950361,159.8124 7.1730461,158.52711 3.2228261,153.34918 l -2.81657998,-3.69196 -0.27977,-60.882436 c -0.27778,-60.44888 -0.26483,-60.90341 1.81808998,-63.828614 C 3.3190461,23.01589 4.9134061,22 6.5683261,22 c 1.38924,0 16.7711019,2.97421 34.1819119,6.609364 17.4108,3.63515 32.78101,6.81221 34.15601,7.06014 7.96952,1.437 16.79483,3.83546 18.73239,5.09093 1.22781,0.79558 3.14031,2.91556 4.25,4.71107 1.9706,3.1885 2.01761,4.81617 2.01761,69.857576 l 0,66.59301 -2.18856,2.03895 c -2.54144,2.36771 -2.97723,2.39814 -8.31144,0.58041 z m -4.84614,-24.29249 c -0.25529,-0.41308 -4.99857,-17.17558 -10.54062,-37.25 -11.69671,-42.367876 -16.9525,-61.267796 -18.23025,-65.556306 -0.86497,-2.9031 -1.30121,-3.1206 -8.64696,-4.31121 -4.25482,-0.68963 -8.46418,-1.46281 -9.35414,-1.71818 -2.07421,-0.59519 -1.57456,-1.98855 -14.91287,41.58674 C 16.730346,113.075 11.144476,131.13424 10.462206,133.13164 l -1.2404799,3.63164 8.4404299,2.61671 c 4.642232,1.43919 8.741912,2.43037 9.110392,2.20264 0.36848,-0.22773 1.54326,-3.60199 2.61061,-7.49835 1.06736,-3.89635 2.1842,-7.07285 2.48187,-7.05889 0.29767,0.014 6.39122,1.71983 13.54122,3.79081 l 13,3.76541 2.18885,7.4592 c 1.20387,4.10255 2.21637,8.40817 2.25,9.56803 0.0601,2.07261 1.33004,2.6121 21.87017,9.29068 0.16996,0.0553 0.10014,-0.23749 -0.15516,-0.65056 z m -39.64229,-47.01517 c -4.66864,-1.30752 -8.61573,-2.50462 -8.77132,-2.66021 -0.55441,-0.55441 8.24569,-31.573576 8.9574,-31.573576 0.78394,0 0.97343,0.69498 5.78259,21.208876 1.76761,7.53989 3.05767,14.08989 2.8668,14.55556 -0.19087,0.46567 -4.16683,-0.22312 -8.83547,-1.53065 z m 67.393422,70.6609 c -1.83325,-2.02602 -1.90499,-4.61802 -1.90499,-68.82816 l 0,-66.722866 2.88182,-3.77793 c 4.28469,-5.61703 2.95694,-5.22846 51.61818,-15.10627 20.92617,-4.247824 20.2042,-4.097834 28.49963,-5.921054 9.65015,-2.12096 12.16415,-1.96554 15.0608,0.93111 l 2.46953,2.469524 -0.0456,60.2014 -0.0456,60.201386 -2.5227,4.57909 c -1.38748,2.51849 -3.51121,5.3018 -4.71939,6.18513 -1.20818,0.88332 -7.59669,3.28368 -14.19669,5.33411 -6.6,2.05044 -16.05,5.01098 -21,6.57897 -4.95,1.568 -13.725,4.27985 -19.5,6.02634 -5.775,1.74649 -15.41182,4.70073 -21.41515,6.56498 C 121.48777,184.4747 116.04502,186 115.39609,186 c -0.64892,0 -2.03711,-0.94739 -3.08485,-2.10531 z m 31.4037,-27.97332 c 4.01978,-1.13235 8.06978,-2.22392 9,-2.42573 8.46343,-1.83608 24.75945,-7.21417 29.4747,-9.72737 6.77196,-3.60942 14.13146,-11.3157 16.96868,-17.76827 2.42937,-5.52501 3.54518,-21.06484 1.87382,-26.096456 -1.66065,-4.99935 -5.13123,-8.81243 -9.32616,-10.24652 l -3.70027,-1.26499 2.57811,-2.94601 c 7.94741,-9.08154 10.56578,-22.63191 6.07243,-31.42559 -5.37096,-10.51119 -12.39925,-11.01999 -43.37627,-3.14011 -11.06945,2.81582 -20.85695,5.11968 -21.75,5.11968 -1.47746,0 -1.62373,4.67799 -1.62373,51.930186 l 0,51.9302 3.25,-0.9401 c 1.7875,-0.51706 6.53891,-1.86657 10.55869,-2.99892 z m 7.19131,-34.86235 c 0,-6.56754 0.37302,-12.17152 0.82893,-12.45329 C 153.43836,107.5531 171.80831,103 174.35205,103 c 1.47505,0 3.73087,1.08576 5.09965,2.45455 4.8246,4.82459 2.40344,16.8961 -4.15855,20.73384 C 172.66753,127.72398 154.63009,133 152.0059,133 c -0.73814,0 -1.09965,-3.92559 -1.09965,-11.94098 z m 0,-39.520476 0,-10.46145 3.75,-0.98402 c 12.75709,-3.34754 17.28918,-4.03234 19.62948,-2.96603 2.56643,1.16934 4.62052,4.70796 4.62052,7.95985 0,3.35099 -3.86233,9.79152 -6.75981,11.27216 -2.43625,1.24495 -18.35783,5.64095 -20.43058,5.64095 -0.44529,0 -0.80961,-4.70766 -0.80961,-10.46146 z m -50,-48.21592 c -1.375002,-0.22276 -5.875002,-1.09488 -10.000002,-1.93804 -20.56141,-4.20282 -38.31819,-7.829904 -56,-11.438854 -25.3941219,-5.18306 -24.000002,-4.83657 -24.000002,-5.96479 0,-0.53952 1.13244,-0.98094 2.51654,-0.98094 1.3841,0 8.246602,-0.92102 15.250002,-2.04671 11.32871,-1.82092 25.03524,-3.92769 45.23346,-6.95263 3.575,-0.5354 10.96079,-1.65458 16.41287,-2.48706 C 95.771198,0.68112 102.61404,0 105.52543,0 c 4.57672,0 33.55583,4.00947 50.38082,6.97056 3.025,0.53238 7.75,1.23652 10.5,1.56475 2.75,0.32823 5.675,0.77591 6.5,0.99485 1.76997,0.4697 4.43324,0.87845 16.5,2.5324 4.95,0.67848 9.40259,1.59205 9.89464,2.03016 1.02784,0.91515 2.25849,0.60834 -23.89464,5.95721 -44.98618,9.200644 -69.08183,13.917584 -70.5,13.801014 -0.825,-0.0678 -2.625,-0.30556 -4,-0.52832 z m 28.19878,-8.808064 c 12.35338,-1.62373 22.43467,-3.96546 24.51915,-5.69543 1.10064,-0.91345 1.05639,-1.41102 -0.25429,-2.85931 -2.69626,-2.97933 -9.65443,-4.15928 -16.99213,-2.88148 -6.05865,1.05507 -6.42235,1.26934 -5.87259,3.45974 0.51801,2.06393 0.0819,2.47785 -3.75644,3.56532 -9.51014,2.69438 -32.924212,1.35521 -44.701982,-2.55674 -5.82202,-1.93376 -6.98191,-3.13383 -4.97175,-5.14398 1.89352,-1.89353 16.95868,-3.69289 24.056252,-2.87325 3.43821,0.39705 8.63091,0.12891 13,-0.67131 l 7.275,-1.33244 -5,-0.67524 c -15.84658,-2.14003 -48.127442,-0.0784 -58.250002,3.72013 -6.69845,2.51364 -5.63099,4.86096 3.76214,8.27292 17.45935,6.34192 44.632712,8.635564 67.186642,5.67107 z"
     id="path3313"
     inkscape:connector-curvature="0" />
</svg>
