<?xml version="1.0" encoding="UTF-8" standalone="no"?>
<!-- Created with Inkscape (http://www.inkscape.org/) -->
<svg id="svg2" xmlns:rdf="http://www.w3.org/1999/02/22-rdf-syntax-ns#" xmlns="http://www.w3.org/2000/svg" xml:space="preserve" height="141.73" width="100.69" version="1.1" xmlns:cc="http://creativecommons.org/ns#" xmlns:dc="http://purl.org/dc/elements/1.1/"><metadata id="metadata8"><rdf:RDF><cc:Work rdf:about=""><dc:format>image/svg+xml</dc:format><dc:type rdf:resource="http://purl.org/dc/dcmitype/StillImage"/><dc:title/></cc:Work></rdf:RDF></metadata><defs id="defs6"><clipPath id="clipPath36" clipPathUnits="userSpaceOnUse"><path id="path38" d="m0,141.73,141.73,0v-141.73h-141.73v141.73z"/></clipPath></defs><g id="g10" transform="matrix(1.25,0,0,-1.25,-38.23825,159.44875)"><g id="g12" transform="translate(111.1416,105.3364)"><path id="path14" fill-rule="nonzero" fill="#e7a63b" d="m0,0-40.275,0-40.276,0,7.548-81.885,32.728-9.279,32.715,9.279l7.56,81.885z"/></g><g id="g16" transform="translate(70.8662,98.666)"><path id="path18" fill-rule="nonzero" fill="#f1c137" d="M0,0,0-77.559,26.502-70.046,32.956,0,0,0z"/></g><g id="g20" transform="translate(91.9512,88.6182)"><path id="path22" fill-rule="nonzero" fill="#FFF" d="m0,0-40.763,0-2.833-30.66,0.06,0.192,34.626,0-1.13-12.969-11.045-3.184-11.214,3.232-0.673,7.849-10.18,0,1.455-15.685,20.612-5.853,20.612,5.853,2.837,30.781-36.742,0,0.468,10.264,25.503,0,0.375-5.875,10.271,0l-2.239,16.055z"/></g><g id="g24" transform="translate(58.9795,53.0781)"><path id="path26" fill-rule="nonzero" fill="#ebebec" d="m0,0-10.18,0,1.454-15.685,20.613-5.84,0,10.444l-11.214,3.232-0.673,7.849zm11.887,35.54-19.679,0-2.833-30.66,0.061,0.192,22.451,0,0,10.024-11.876,0,0.468,10.264,11.408,0,0,10.18z"/></g><g id="g28" transform="translate(63.0278,117.415)"><path id="path30" fill-rule="nonzero" fill="#373535" d="m0,0-7.163,0,0-5.144,7.163,0,3.835,0,1.298,0,0,15.288h-5.133v-10.144z"/></g><g id="g32"><g id="g34" clip-path="url(#clipPath36)"><g id="g40" transform="translate(85.8682,127.4814)"><path id="path42" fill-rule="nonzero" fill="#373535" d="m0,0-12.494,0,0-5.354c1.67-1.671,2.543-2.471,4.961-4.889-1.414,0-4.961-0.005-4.961-0.005v-4.884h12.494v4.885l-4.99,4.893h4.99v5.354z"/></g></g></g></g></svg>
