<?xml version="1.0" encoding="UTF-8" standalone="no"?>
<!-- Created with Inkscape (http://www.inkscape.org/) -->
<svg id="svg4018" xmlns:rdf="http://www.w3.org/1999/02/22-rdf-syntax-ns#" xmlns="http://www.w3.org/2000/svg" height="236.34" width="173.03" version="1.1" xmlns:cc="http://creativecommons.org/ns#" xmlns:dc="http://purl.org/dc/elements/1.1/">
 <metadata id="metadata4024">
  <rdf:RDF>
   <cc:Work rdf:about="">
    <dc:format>image/svg+xml</dc:format>
    <dc:type rdf:resource="http://purl.org/dc/dcmitype/StillImage"/>
    <dc:title/>
   </cc:Work>
  </rdf:RDF>
 </metadata>
 <text id="text4156" style="letter-spacing:0px;word-spacing:0px;" font-weight="normal" xml:space="preserve" font-size="40px" font-stretch="normal" line-height="125%" font-variant="normal" y="24.720924" x="21.528194" font-family="Dingbats" font-style="normal" fill="#000000"><tspan id="tspan4158" x="21.528194" y="24.720924"/></text>
 <g id="layer2" transform="translate(-0.08231,-0.430843)">
  <rect id="rect4223" height="155.14" width="67.526" y="50.451" x="18.741" fill="#f9f9f9"/>
 </g>
 <g id="layer1" transform="translate(-0.08231,-0.430843)">
  <g id="g4176" transform="translate(-112.19894,-87.819456)">
   <path id="path4066" fill="#cdf6f0" d="m112.28,127.69,0.53125,3.75c0.28923,2.0625,1.6452,16.8,3.0312,32.75,6.7352,77.508,12.552,139.92,13.062,140.44,0.31184,0.31465,15.474,4.9077,33.719,10.219,18.244,5.3111,34.312,9.6945,35.688,9.75,2.5388,0.10247,68.91-18.594,70.219-19.781,0.39239-0.3559,1.1621-4.6824,1.7188-9.625,1.3523-12.006,15.062-162.45,15.062-165.28v-2.2188h-86.531-86.5zm32.062,37,53.938,0,53.938,0-0.5,4.75c-0.87223,8.5092-4.4062,54.662-4.4062,57.5v2.75h-7.5c-4.125,0-7.5,0.44209-7.5,0.96875s2.0184,10.723,4.5,22.656,4.3751,21.812,4.2188,21.969c-0.15638,0.15638-5.2123,1.6822-11.25,3.375s-11.724,3.3005-12.656,3.5938c-2.1069,0.66272-2.1274,0.56412-4.875-28.562-1.1673-12.374-2.3384-22.837-2.5938-23.25-0.25532-0.41312-9.0263-0.75-19.469-0.75h-18.969l0.5625,3.25c0.45392,2.579,6.5312,47.528,6.5312,48.312,0,0.30079-23.232-6.451-23.656-6.875-0.19926-0.19926-2.3886-23.057-4.8438-50.781s-4.6898-52.319-4.9688-54.656l-0.5-4.25zm23.688,21,0.625,5.25c0.34683,2.8875,0.62,7.8606,0.625,11.031l0.0312,5.75,29.719-0.25,29.75-0.28125,0.625-4.5c0.34005-2.475,0.90437-7.3125,1.25-10.75l0.625-6.25h-31.625-31.625z"/>
   <path id="path4042" fill="#3db9a9" d="m113.03,128.69,0.5625,5.25c0.30933,2.8875,3.8064,42.15,7.7812,87.25,3.9749,45.1,7.5622,82.381,7.9688,82.844,0.40652,0.46248,15.971,5.2952,34.594,10.719,23.98,6.9839,34.75,9.6918,36.875,9.2812,2.949-0.56978,67.885-19.315,68.094-19.656,0.17295-0.28261,3.0858-31.798,9.4062-101.69,3.2579-36.025,6.1517-67.412,6.4375-69.75l0.53125-4.25h-86.125-86.125zm85.281,13,35.5,0,35.5,0-0.0625,3.25c-0.028,1.7875-2.8596,36.078-6.2812,76.188l-6.2188,72.938-27.969,7.7812c-15.388,4.2956-28.531,7.8368-29.219,7.8438-0.97913,0.0106-1.25-8.5595-1.25-39.5v-39.5h-13c-9.7495,0-12.991,0.31255-12.969,1.25,0.0166,0.6875,1.4806,12.162,3.2812,25.5,2.1,15.554,2.895,24.236,2.2188,24.219-0.57985-0.0149-6.2062-1.512-12.531-3.3438l-11.5-3.3438-4.7188-52.375c-2.5843-28.816-4.7218-53.644-4.75-55.156l-0.0312-2.75h27,27v-11.5-11.5zm-29,44,0,4.375c0,2.3943,0.27165,7.1193,0.625,10.5l0.65625,6.125h13.844,13.875v-10.5-10.5h-14.5-14.5z"/>
  </g>
  <g id="g4180" fill="#000" transform="translate(-110.41596,-83.180276)">
   <path id="path4098" d="m182.35,115.46c-1.0097-0.19965-1.8443-0.6438-1.9615-1.0439-0.052-0.17754-2.1201-6.816-4.5957-14.752-2.4756-7.9362-4.5011-14.594-4.5011-14.796,0-0.7355,0.57939-0.8278,5.6367-0.89794,2.6465-0.0367,4.8118-0.02617,4.8118,0.02341,0,0.25968,2.6319,8.731,3.2008,10.302,0.72236,1.9953,1.465,3.2914,1.7759,3.0993,0.40867-0.25257,1.814-3.8889,3.819-9.8817l1.0426-3.1162,3.1922-0.20829c1.7557-0.11456,3.7434-0.24184,4.4171-0.28285l1.2248-0.07456,0.57466,1.841c2.0645,6.6138,3.3887,10.513,3.7819,11.136,0.9596,1.5201,1.3547,0.78689,3.3454-6.2088,0.79858-2.8063,1.5481-5.4614,1.6656-5.9002l0.21366-0.79792,5.0746,0.06784c2.8698,0.03836,5.2031,0.14611,5.3703,0.248,0.26645,0.16238,0.24281,0.35208-0.23949,1.9216-0.65418,2.1288-4.9512,15.567-7.5319,23.555l-1.8951,5.8658-4.8626,0.0488-4.8626,0.0488-1.8707-5.6396c-1.8712-5.641-2.9344-8.2976-3.3208-8.2976-0.38239,0-1.4335,2.6351-3.3088,8.2946l-1.8676,5.6367-3.782-0.0201c-2.0801-0.011-4.1263-0.0881-4.5471-0.17135z"/>
   <path id="path4100" d="m225.12,116.32c-1.1064-0.31394-1.2094-0.4211-1.5547-1.617-0.35344-1.2241-0.48362-12.248-0.27128-22.972l0.14154-7.149,6.6907,0.0043c5.6012,0.0036,7.0182,0.05874,8.7016,0.33842,9.8698,1.6397,14.248,6.4317,14.256,15.605,0.003,3.0465-0.31336,4.7552-1.2214,6.6004-1.0869,2.2084-3.1156,4.1004-6.3386,5.9112-2.352,1.3214-5.7552,2.297-10.723,3.074-2.5872,0.40462-8.5334,0.53053-9.6806,0.20498zm12.947-10.257c2.5193-1.2451,4.7071-3.9052,4.7071-5.7233,0-1.2015-0.95582-2.8846-2.5554-4.4997-1.7495-1.7664-2.503-2.0553-5.4184-2.0774l-2.0164-0.01526-0.0502,3.1654c-0.0276,1.741,0.0222,4.4982,0.11062,6.1272,0.1594,2.9359,0.1653,2.9656,0.67758,3.4062,0.4632,0.39843,0.65266,0.43765,1.8275,0.37832,1.0666-0.0539,1.5728-0.1957,2.7176-0.76151z"/>
   <path id="path4128" d="m140.94,99.618,0-16.007,0.85185,0.08392c0.46852,0.04615,3.1519,0.21599,5.963,0.37742,11.166,0.64118,14.206,1.1002,17.333,2.6167,1.6616,0.80599,3.0595,2.1021,3.8106,3.5333,1.0321,1.9666,1.6837,5.4962,1.3907,7.5333-0.18508,1.287-0.50983,1.7847-3.3546,5.1414-1.1958,1.411-2.2044,2.6442-2.2414,2.7405s1.1292,1.9998,2.5916,4.2298c2.966,4.5232,3.3436,5.1667,3.1473,5.363-0.2293,0.2293-6.4262,0.42799-8.2324,0.26395-3.0657-0.27842-3.2817-0.46016-7.6247-6.4177-1.1706-1.6057-2.1739-2.8913-2.2296-2.8568-0.0557,0.0344-0.14522,0.6815-0.19894,1.438-0.0537,0.75645-0.1961,2.7087-0.31641,4.3383-0.12032,1.6296-0.2197,3.113-0.22085,3.2963l-0.002,0.33333h-5.3333-5.3333v-16.007zm14.802,0.07537c1.2248-0.28871,2.6814-0.98684,3.3246-1.5934,0.99305-0.93657,0.99754-2.4869,0.01-3.3543-1.0193-0.89495-3.7098-1.9126-5.2283-1.9777-0.83982-0.03596-1.4236,0.29506-1.7966,1.0188-0.28458,0.55211-0.29528,4.6942-0.0135,5.2207,0.4752,0.88792,1.8034,1.1338,3.7041,0.6858z"/>
  </g>
 </g>
</svg>
