<?xml version="1.0" encoding="UTF-8" standalone="no"?>
<svg id="svg2" xmlns:rdf="http://www.w3.org/1999/02/22-rdf-syntax-ns#" xmlns="http://www.w3.org/2000/svg" xml:space="preserve" height="753.18" width="753.18" version="1.1" xmlns:cc="http://creativecommons.org/ns#" xmlns:dc="http://purl.org/dc/elements/1.1/" viewBox="0 0 753.17798 753.17798"><metadata id="metadata8"><rdf:RDF><cc:Work rdf:about=""><dc:format>image/svg+xml</dc:format><dc:type rdf:resource="http://purl.org/dc/dcmitype/StillImage"/><dc:title/></cc:Work></rdf:RDF></metadata><defs id="defs6"/><g id="layer2" transform="translate(0,3.1779785)"><path id="path4327" d="M753.18,373.41c0,207.99-168.61,376.59-376.59,376.59-207.99,0-376.59-168.6-376.59-376.59,0-207.98,168.6-376.59,376.59-376.59,207.98,0,376.59,168.6,376.59,376.59z" fill="#2c91bc"/></g><g id="layer3" transform="translate(0,3.1779785)"><g id="g4051" transform="matrix(0.90699154,0,0,0.90699154,33.716937,27.352924)"><g id="g22" transform="matrix(1.25,0,0,-1.25,617.21225,707.28925)"><path id="path24" fill-rule="nonzero" fill="#2b586f" d="m0,0c0-12.832-85.667-23.235-191.34-23.235-105.68,0-191.34,10.403-191.34,23.235,0,12.835,100.49,23.235,191.34,23.235,108.14,0,191.34-10.4,191.34-23.235"/></g><g id="g26" transform="matrix(1.25,0,0,-1.25,602.407,497.72325)"><path id="path28" fill-rule="nonzero" fill="#ebf7fe" d="m0,0c-5.922,0-12.301,2.733-16.857,23.69-4.557,20.956-11.389,42.369-11.389,42.369,7.29,0,11.389,3.19,11.389,3.19-5.012,2.278-15.946,10.022-23.235,19.589s-25.968,25.058-25.968,25.058v30.979c0,20.957,13.44,37.357,13.44,37.357-9.11,0-13.44-8.199-13.44-8.199v44.191c0,43.735,22.095,63.324,22.095,63.324-6.834,0.455-11.389-2.734-11.389-2.734,3.188,32.346,13.098,41.914,13.098,41.914-36.445,9.567-56.777-11.846-56.777-11.846-4.1,19.59,11.931,30.983,11.931,30.983-18.678,4.1-34.126-1.367-34.126-1.367,0,28.702,11.411,38.275,11.411,38.275-56.948,0-89.283-42.819-89.283-42.819-2.277,18.224,2.739,34.184,2.739,34.184-55.125-23.234-69.7-74.689-69.7-74.689-3.644,8.656-4.099,28.305-4.099,28.305s-22.779-38.155-26.88-64.577c-4.1-26.424,3.644-102.28,3.644-102.28s-3.642,4.554-11.388,5.466c0,0,8.201-9.112,8.201-29.613,0,0-3.19,2.733-8.657,1.367,0,0,8.655-7.744,9.567-20.957,0,0-10.022-6.833-15.489-13.667,0,0-8.657-0.455-13.213-1.822,0,0,7.291-4.1,8.657-7.745,0,0-21.412-21.868-32.346-39.636,0,0,9.567,5.922,16.401,4.1,0,0-15.035-18.222-20.046-48.291,0,0,7.288,3.644,10.478,1.822,0,0-9.112-19.133-9.567-39.179l-10.023-5.923,7.745-5.467s-5.923-24.602-7.29-38.724c0,0,4.556,4.555,8.201,5.922,0,0,5.012-11.844,11.845-20.956,6.834-9.113,22.325-16.858,31.436-16.858l17.126,0.669c-2.125-9.166-6.315-16.938-15.147-17.345l-0.979-1.572c-0.186,0.013-0.367,0.021-0.546,0.025-0.175-2.676-5.575-3.158-7.061-5.011-4.515-5.633-7.957-13.373-10.25-20.273-1.681-5.058-0.886-5.056-2.05-10.251-0.382-1.7-2.145-3.517-2.734-5.239,4.92,1.653,18.553,2.756,25.733,3.284l0.122-6.356s1.184-1.101,3.144-1.899c0.068,0.013,0.134,0.032,0.215,0.025,0.666-0.055,1.31-0.152,1.938-0.308,10.777,0.963,18.279-0.855,30.769,0.182,2.431,0.29,4.709,0.632,6.837,1.842,0.604,1.808,0.686,1.918,0.97,4.253,0.061,0.416,0.061,0.843,0.162,1.35,0.196,0.034,0.385,0.062,0.576,0.09,0.074,0.028,0.19,0.052,0.446,0.061,0.053,0.016,0.099,0.042,0.159,0.047,0.197,0.017,0.395,0.033,0.592,0.051,0.137,0.05,0.266,0.065,0.383,0.033,2.261,0.202,5.89,0.392,8.15,0.515,7.348,0.012,17.014-0.834,17.014-0.834,0.598,8.235,1.196,21.014,14.521,58.257l3.304,2.049s40.929-14.421,78.905,0.584c3.006-7.397,12.729-32.259,14.259-47.933,1.307-1.836,1.161-4.168,1.205-6.637,0.037-2.09,0.214-4.182,0.27-6.265,1.365,0.185,6.297,0.79,12.522,0.779,2.26-0.123,5.889-0.313,8.15-0.515,0.117,0.032,0.247,0.017,0.383-0.033,0.197-0.018,0.395-0.034,0.592-0.051,0.06-0.005,0.106-0.031,0.159-0.047,0.256-0.009,0.373-0.033,0.446-0.061,0.191-0.028,0.38-0.056,0.577-0.09,0.1-0.507,0.1-0.934,0.161-1.35,0.284-2.335,0.366-2.445,0.97-4.253,0.195-0.11,0.393-0.206,0.59-0.304,6.801,0.862,13.692,1.021,20.535,0.697,5.381-0.255,10.671-1.266,15.968-2.229,0.002-0.051,0.006-0.102,0.006-0.152,0.534-0.058,1.055-0.095,1.576-0.13,2.843-0.507,5.692-0.981,8.561-1.29,0.055,3.587,0.034,6.725-0.04,9.48,5.706-0.274,13.965-1.409,17.43-1.914,1.373-0.33,2.489-0.533,3.661-0.785,0.159-0.047,0.327-0.095,0.471-0.143-0.005,0.014-0.012,0.028-0.017,0.042,1.176-0.265,2.443-0.598,4.117-1.18-0.255,3.082-0.232,3.018-0.639,6.882-0.315,2.988-2.457,12.067-6.467,15.812,0,0,4.369-1.889,5.702-2.64-4.306,5.834-6.4,14.175-19.928,19.926,0,0,2.47,1.165,4.73,1.459-2.361,1.454-4.165,2.027-6.555,1.853,0.813,2.307,4.386,8.123,7.384,8.871,0,0-1.841,1.279-4.849,0.29-1.119-0.586-2.204-1.215-3.26-1.96-0.399-0.281-0.981,0.011-1.098,0.447-0.947,3.499-1.562,7.053-2.12,10.622,27.263,0.988,31.087,14.974,31.087,14.974,2.278-1.823,2.277-5.922,2.277-5.922,11.844,15.489,10.479,30.98,10.479,30.98,2.733-0.455,5.012-2.278,5.012-2.278,1.366,23.689-5.922,64.236-5.922,64.236,3.645-1.821,5.922,0.456,5.922,0.456-4.101,1.821-4.556,6.378-4.556,6.378,5.945-0.449,6.855,5.018,6.855,5.018"/></g><g id="g30" transform="matrix(1.25,0,0,-1.25,276.61262,712.5815)"><path id="path32" fill-rule="nonzero" fill="#ceebf5" d="m0,0s1.068,11.523-2.689,19.836c0,0,7.116-0.483,8.312-19.275,0,0-4.984-0.58-5.623-0.561"/></g><g id="g34" transform="matrix(1.25,0,0,-1.25,231.96162,664.01138)"><path id="path36" fill-rule="nonzero" fill="#ceebf5" d="M0,0,0.044,0.354c0.025-0.175,0.021-0.31-0.044-0.354"/></g><g id="g38" transform="matrix(1.25,0,0,-1.25,240.29025,711.46525)"><path id="path40" fill-rule="nonzero" fill="#ceebf5" d="m0,0c-0.041,0.011-0.064,0.017-0.064,0.017s0.029,0.079,0.083,0.217l-0.019-0.234z"/></g><g id="g42" transform="matrix(1.25,0,0,-1.25,353.53525,80.281125)"><path id="path44" fill-rule="nonzero" fill="#ceebf5" d="m0,0c-2.277,18.224,2.738,34.185,2.738,34.185-55.125-23.235-69.702-74.69-69.702-74.69-3.643,8.656-4.099,28.306-4.099,28.306s-22.779-38.156-26.879-64.578c-4.1-26.424,3.643-102.28,3.643-102.28s-3.642,4.554-11.387,5.465c0,0,8.2-9.112,8.2-29.613,0,0-3.19,2.734-8.657,1.367,0,0,8.656-7.744,9.567-20.956,0,0-10.022-6.834-15.489-13.668,0,0-8.657-0.455-13.212-1.822,0,0,7.29-4.1,8.657-7.745,0,0-21.413-21.868-32.347-39.636,0,0,9.567,5.922,16.401,4.101,0,0-15.035-18.223-20.046-48.292,0,0,7.289,3.644,10.478,1.822,0,0-9.112-19.133-9.567-39.179l-10.022-5.923,7.744-5.467s-5.922-24.601-7.289-38.724c0,0,4.555,4.555,8.2,5.922,0,0,5.012-11.844,11.846-20.956,6.833-9.112,22.325-16.858,31.436-16.858l1.153,0.159c-0.508-3.142-1.08-6.27-1.914-9.353-0.118-0.437-0.7-0.729-1.099-0.448-1.055,0.745-2.141,1.374-3.259,1.96-3.009,0.989-4.849-0.29-4.849-0.29,2.998-0.747,6.571-6.564,7.384-8.87-2.391,0.173-4.194-0.399-6.555-1.854,2.259-0.294,4.73-1.459,4.73-1.459-13.529-5.751-15.623-14.092-19.929-19.926,1.334,0.752,5.702,2.64,5.702,2.64-4.009-3.745-6.151-12.824-6.466-15.812-0.407-3.864-0.385-3.8-0.64-6.882,3.587,1.247,5.33,1.37,8.233,2.066,4.486,0.653,17.023,2.372,21.627,1.894l-0.726-8.857,0.227,0.003c2.364,0.678,4.29,0.587,6.399,0.814,0.031,2.441,0.159,4.88,0.359,7.311-0.142,4.157,0.375,7.942,1.224,12.161,0.028,0.141,0.063,0.29,0.092,0.432,1.672,5.76,4.582,9.039,6.472,11.056,0.627,0.67,1.172,1.463,1.638,2.275,1.127,1.502,2.299,3.457,3.204,5.925,1.874,5.111,1.071,16.338-2.693,27.296,3.969-5.708,7.584-10.719,9.297-12.432l-0.113,13.951s7.289-7.285,13.813-12.787c3.14-2.743,7.015-6.311,9.766-7.731,0.199-0.125,0.378,1.2,0.597-0.8h-0.002c0.028,0,0.055,0.396,0.083,0.38,3.694-2.073,7.496-3.719,11.054-6.023,0.38-0.245,0.77-0.364,1.144-0.622,1.647-1.134,4.546-2.394,7.151-3.768l2.464-29.096c2.221,30.581,19.647,59.864,19.647,59.864l-0.638,0.196c-5.392,1.667-44.845,15.315-68.154,64.052-1.535,3.21,8.655-3.643,8.655-3.643-9.567,23.234-13.212,60.593-13.212,60.593,3.189-2.734,6.379-3.189,6.379-3.189-6.834,19.135-9.568,42.825-9.568,64.237-1.821,115.26,40.776,141.68,40.776,141.68-7.289,2.734-15.034,2.506-15.034,2.506,8.428,20.272,36.445,48.519,36.445,48.519-7.517-0.457-36.902-8.427-36.902-8.427,24.373,63.553,48.976,80.409,48.976,80.409-1.822-15.261,4.1-31.435,4.1-31.435,52.871,65.404,95.331,62.354,95.331,62.354,3.148,6.557,6.725,11.029,6.725,11.029-56.948,0-89.285-42.819-89.285-42.819"/></g><g id="g46" transform="matrix(1.25,0,0,-1.25,540.26125,712.131)"><path id="path48" fill-rule="nonzero" fill="#ceebf5" d="m0,0s-0.514,16.516-4.271,24.83c0,0,9.795-6.037,9.739-25.113,0,0-4.829,0.264-5.468,0.283"/></g><g id="g50" transform="matrix(1.25,0,0,-1.25,221.701,605.95312)"><path id="path52" fill-rule="nonzero" fill="#aedce3" d="m0,0c6.452,63.192,8.209,186.81,8.209,186.81-14.01-27.677-25.285-77.905-25.285-77.905l2.733-10.934-6.15,2.734c-9.885-34.298-3.197-80.222-0.982-93.159,6.288-4.977,13.778-6.656,21.475-7.541"/></g><g id="g54" transform="matrix(1.25,0,0,-1.25,205.18237,604.24625)"><path id="path56" fill-rule="nonzero" fill="#aedce3" d="m0,0c2.003-10.114,4.081-19.854,6.389-29.9,1.709-0.256,3.631-0.128,3.631-0.128,1.568,6.11,1.828,15.566,3.047,27.198-4.492,0.526-8.899,1.324-13.067,2.83"/></g><g id="g58" transform="matrix(1.25,0,0,-1.25,472.815,672.31313)"><path id="path60" fill-rule="nonzero" fill="#ceebf5" d="m0,0c-0.367-0.107-0.646,0.057-0.797,0.308-0.709-0.139-1.251-0.267-1.616-0.36,0,0.001,0.001,0.001,0.001,0.001,9.399,6.841,10.263,14.073,10.263,14.073-6.235-2.81-12.854-3.861-16.074-4.231,21.725,18.832,25.335,53.798,25.335,53.798-8.898-10.923-21.526-20.154-31.285-26.349l0.021,0.041s-6.539-3.656-12.581-6.503c-0.266,0.04-0.531-0.03-0.73-0.34-3.104-1.437-5.998-2.611-7.703-2.895,0,0,5.032-9.291,7.133-14.301l-0.412-0.334s7.279-17.206,9.928-33.872c0.281-2.817,0.497-5.284,0.648-7.169,0.127-2.439,0.3-4.119,0.3-4.119,9.625,1.424,23.22,0.037,23.22,0.037-0.065-1.568,0.796-5.332,0.954-6.014,4.571,0.617,9.182,0.885,13.795,0.925-0.062,16.154-0.772,42.995-20.4,37.304"/></g><g id="g62" transform="matrix(1.25,0,0,-1.25,221.0705,612.04612)"><path id="path64" fill-rule="nonzero" fill="#89c2cf" d="M0,0c-15.094,2.553-28.79,19.899-28.79,19.899,11.005-11.702,24.704-13.269,24.704-13.269,1.809,13.364-9.237,43.951-9.237,43.951,8.18-10.187,12.656-21.972,15.102-31.616l-1.779-18.965z"/></g><g id="g66" transform="matrix(1.25,0,0,-1.25,263.88787,582.46725)"><path id="path68" fill-rule="nonzero" fill="#aedce3" d="m0,0s11.874-20.928,22.295-29.983c11.246-9.771,21.697-23.576,26.139-31.948,0,0,5.638,13.097,8.713,17.653,0,0-33.314,9.768-57.147,44.278"/></g><g id="g70" transform="matrix(1.25,0,0,-1.25,457.611,633.48975)"><path id="path72" fill-rule="nonzero" fill="#aedce3" d="m0,0c1.651,2.322,3.542,4.482,5.344,6.687,2.955,3.618,6.331,7.13,8.812,11.067-4.282-3.204-9.049-5.981-13.924-8.913-14.146-9.586-24.003-12.301-24.003-12.301,3.075-4.556,8.713-17.652,8.713-17.652,2.688,5.066,7.585,12.123,13.52,19.073,0.498,0.691,1.052,1.354,1.538,2.039"/></g><g id="g74" transform="matrix(1.25,0,0,-1.25,258.25713,192.8955)"><path id="path76" fill-rule="nonzero" fill="#646264" d="m0,0c-1.295-0.094-5.44-0.199-5.44-0.199-37.563-2.621-65.173,26.486-65.173,26.486s-2.468-22.721,13.849-42.631c16.322-19.909,49.396-23.317,49.396-23.317,1.075-4.655-1.253-15.038-1.253-15.038s9.671,10.698,12.127,30.968c1.725,14.204-2.704,23.79-3.506,23.731"/></g><g id="g78" transform="matrix(1.25,0,0,-1.25,258.25713,192.8955)"><path id="path80" fill-rule="nonzero" fill="#798488" d="m0,0c-1.245-0.071-5.44-0.199-5.44-0.199-37.563-2.621-65.173,26.486-65.173,26.486s17.161-49.661,74.469-45.736c0,0,1.584,9.185-3.856,19.449"/></g><g id="g82" transform="matrix(1.25,0,0,-1.25,492.68212,192.8955)"><path id="path84" fill-rule="nonzero" fill="#646264" d="m0,0c1.295-0.094,5.44-0.199,5.44-0.199,37.563-2.621,65.173,26.486,65.173,26.486s2.468-22.721-13.849-42.631c-16.322-19.909-49.396-23.317-49.396-23.317-1.075-4.655,1.253-15.038,1.253-15.038s-9.671,10.698-12.127,30.968c-1.725,14.204,2.704,23.79,3.506,23.731"/></g><g id="g86" transform="matrix(1.25,0,0,-1.25,492.68212,192.8955)"><path id="path88" fill-rule="nonzero" fill="#798488" d="m0,0c1.245-0.071,5.44-0.199,5.44-0.199,37.563-2.621,65.173,26.486,65.173,26.486s-17.161-49.661-74.469-45.736c0,0-1.584,9.185,3.856,19.449"/></g><g id="g90" transform="matrix(1.25,0,0,-1.25,233.75,403.189)"><path id="path92" fill-rule="nonzero" fill="#ceebf5" d="M0,0s-27-97.039,0-159.23v159.23z"/></g><g id="g94" transform="matrix(1.25,0,0,-1.25,569.80337,595.062)"><path id="path96" fill-rule="nonzero" fill="#ceebf5" d="m0,0c-13.326-10.169-27.191-10.814-27.191-10.814-0.618,13.286,13.905,42.331,13.905,42.331-3.305-1.952-5.96-4.312-8.145-6.901l-0.095,9.747,10.477,8.656-8.427,6.834,10.706,43.052-10.251-6.834s-3.187,61.274-0.91,87.699c0,0-12.984,12.985-19.363,18.224,0,0,1.205-18.866,2.58-49.011,5.819-24.18,14.857-74.223,3.614-118.23,0.13-8.922,0.226-17.982,0.278-27.127,0,0,5.602-19.465,7.424-33.133,0,0,1.822-0.512,4.555-0.057l-0.205,20.931c14.075,4.251,21.048,14.636,21.048,14.636"/></g><g id="g98" transform="matrix(1.25,0,0,-1.25,411.91387,360.18813)"><path id="path100" fill-rule="nonzero" fill="#ceebf5" d="m0,0c0-10.349,6.628-18.739,14.807-18.739,8.178,0,14.808,8.39,14.808,18.739,0,10.352-6.63,18.742-14.808,18.742-8.179,0-14.807-8.39-14.807-18.742"/></g><g id="g102" transform="matrix(1.25,0,0,-1.25,412.48437,353.93)"><path id="path104" fill-rule="nonzero" fill="#FFF" d="m0,0c0-10.19,6.527-18.451,14.579-18.451s14.579,8.261,14.579,18.451c0,10.191-6.527,18.451-14.579,18.451s-14.579-8.26-14.579-18.451"/></g><g id="g106" transform="matrix(1.25,0,0,-1.25,425.87,342.03925)"><path id="path108" fill-rule="nonzero" fill="#58585a" d="m0,0c-0.116-0.453-0.196-0.925-0.196-1.426,0-2.598,1.694-4.703,3.782-4.703,1.856,0,3.393,1.664,3.713,3.857,1.191-1.561,1.925-3.665,1.925-5.987,0-4.813-3.136-8.713-7.004-8.713s-7.005,3.9-7.005,8.713c0,3.846,2.005,7.103,4.785,8.259"/></g><g id="g110" transform="matrix(1.25,0,0,-1.25,323.0755,360.18813)"><path id="path112" fill-rule="nonzero" fill="#ceebf5" d="m0,0c0-10.349,6.628-18.739,14.807-18.739,8.178,0,14.808,8.39,14.808,18.739,0,10.352-6.63,18.742-14.808,18.742-8.179,0-14.807-8.39-14.807-18.742"/></g><g id="g114" transform="matrix(1.25,0,0,-1.25,323.64612,353.93)"><path id="path116" fill-rule="nonzero" fill="#FFF" d="m0,0c0-10.19,6.527-18.451,14.579-18.451s14.579,8.261,14.579,18.451c0,10.191-6.527,18.451-14.579,18.451s-14.579-8.26-14.579-18.451"/></g><g id="g118" transform="matrix(1.25,0,0,-1.25,340.44862,342.03925)"><path id="path120" fill-rule="nonzero" fill="#58585a" d="m0,0c-0.116-0.453-0.196-0.925-0.196-1.426,0-2.598,1.694-4.703,3.782-4.703,1.856,0,3.393,1.664,3.713,3.857,1.191-1.561,1.925-3.665,1.925-5.987,0-4.813-3.136-8.713-7.004-8.713s-7.005,3.9-7.005,8.713c0,3.846,2.005,7.103,4.785,8.259"/></g><g id="g122" transform="matrix(1.25,0,0,-1.25,478.60262,378.567)"><path id="path124" fill-rule="nonzero" fill="#646264" d="m0,0c-0.929-2.796-4.084-3.54-13.073-5.277l-0.612-0.118c-8.807-1.691-24.553-1.471-33.177-0.211-0.372,0.054-0.731,0.108-1.073,0.166-7.993,1.352-8.904,2.386-11.474,6.529-2.655,4.289-4.287,16.879-4.588,19.361l-0.016,0.126c-0.319,2.624-0.476,3.937,2.895,5.447,4.534,2.033,24.658,4.873,32.904,5.244,6.51,0.287,20.31-0.619,26.62-1.542,0.989-0.145,1.722-0.279,2.175-0.399,0.726-0.192,3.399-1.492,3.263-4.335-0.178-3.745-2.588-21.211-3.844-24.991m-87.768,20.576-0.016-0.126c-0.3-2.482-1.933-15.072-4.587-19.361-2.571-4.143-3.481-5.177-11.475-6.529-0.341-0.058-0.7-0.112-1.073-0.166-8.623-1.26-24.369-1.48-33.177,0.211l-0.611,0.118c-8.989,1.737-12.145,2.481-13.073,5.277-1.256,3.78-3.667,21.246-3.844,24.991-0.137,2.843,2.537,4.143,3.263,4.335,0.452,0.12,1.185,0.254,2.174,0.399,6.311,0.923,20.11,1.829,26.621,1.542,8.246-0.371,28.369-3.211,32.903-5.244,3.372-1.51,3.214-2.823,2.895-5.447m99.311,16.63c-6.603,0.965-18.127,2.06-31.96,1.354-18.001-0.926-33.425-3.425-42.639-4.917-2.75-0.446-4.911-0.798-6.56-1.016l-1.799-0.244c-2.021-0.278-3.346-0.454-4.475-0.51-1.13,0.056-2.455,0.232-4.476,0.51l-1.799,0.244c-1.648,0.218-3.809,0.57-6.56,1.016-9.213,1.492-24.637,3.991-42.638,4.917-13.833,0.706-25.357-0.389-31.96-1.354,0,0-7.046-0.897-13.072-3.446l1.149-7.658s6.367,1.516,12.586,2.346c1.156-10.801,3.405-24.679,3.405-24.679l0.036-0.43c0.171-0.699,0.33-1.378,0.502-2.119,1.281-5.458,2.553-8.665,7.671-10.59,5.026-1.896,16.918-3.654,28.913-4.272,4.46-0.231,9.522,0.044,14.642,0.789,7.593,1.109,14.46,3.152,17.084,5.093,3.819,2.822,5.861,9.922,7.213,14.62l0.405,1.386c0.477,1.602,0.893,3.283,1.294,4.916,0.577,2.342,1.172,4.763,1.681,5.599,0.092,0.145,0.52,0.651,2.189,0.895,0.516,0.075,1.097,0.115,1.735,0.123,0.638-0.008,1.218-0.048,1.735-0.123,1.668-0.244,2.097-0.75,2.189-0.895,0.508-0.836,1.104-3.257,1.68-5.599,0.402-1.633,0.817-3.314,1.295-4.916l0.404-1.386c1.352-4.698,3.394-11.798,7.213-14.62,2.624-1.941,9.491-3.984,17.084-5.093,5.12-0.745,10.183-1.02,14.642-0.789,11.995,0.618,23.887,2.376,28.914,4.272,5.117,1.925,6.389,5.132,7.67,10.59,0.173,0.741,0.332,1.42,0.502,2.119l0.036,0.43s2.249,13.878,3.405,24.679c6.22-0.83,12.586-2.346,12.586-2.346l1.15,7.658c-6.026,2.549-13.072,3.446-13.072,3.446"/></g><g id="g126" transform="matrix(1.25,0,0,-1.25,347.29725,307.814)"><path id="path128" fill-rule="nonzero" fill="#a3d5e9" d="m0,0s-16.469,7.855-25.895-6.73c0,0-0.973,14.503,12.328,16.124,13.3,1.623,13.567-9.394,13.567-9.394"/></g><g id="g130" transform="matrix(1.25,0,0,-1.25,339.57587,281.1765)"><path id="path132" fill-rule="nonzero" fill="#a3d5e9" d="m0,0s-15.266,7.205-22.223-6.642c0,0-2.271,12.098,8.624,15.019,10.895,2.92,13.599-8.377,13.599-8.377"/></g><g id="g134" transform="matrix(1.25,0,0,-1.25,421.03988,318.92887)"><path id="path136" fill-rule="nonzero" fill="#a3d5e9" d="m0,0s12.791,6.1,20.111-5.228c0,0,0.756,11.264-9.573,12.524-10.331,1.26-10.538-7.296-10.538-7.296"/></g><g id="g138" transform="matrix(1.25,0,0,-1.25,432.40825,293.71275)"><path id="path140" fill-rule="nonzero" fill="#a3d5e9" d="m0,0s12.943,2.095,15.158-9.734c0,0,4.297,8.541-3.207,13.061-7.504,4.524-11.951-3.327-11.951-3.327"/></g><g id="g142" transform="matrix(1.25,0,0,-1.25,345.86575,451.4305)"><path id="path144" fill-rule="nonzero" fill="#b4dff0" d="m0,0s9.036,6.073,14.371,6.91c0,0,1.164-11.46,6.464-17.107,0,0,11.438,10.312,22.75,11.045,0,0,2.92-6.284,7.661-8.615l-0.026-0.073c1.711-1.068,3.806-2.148,5.836-2.599,0,0,6.492,3.93,8.371,11.105,0,0,0.625-15.149-8.883-23.405,0,0-7.252,3.538-12.476,9.202-1.568,1.529-3.199,3.305-3.992,4.751,0,0-16.776-11.869-17.389-18.637,0,0-12.109,11.807-16.239,20.904,0,0-8.082-2.55-10.324-4.195,0,0-6.496,10.625-7.815,20.212,0,0,7.812-7.461,11.691-9.498"/></g><g id="g146" transform="matrix(1.25,0,0,-1.25,383.98337,414.212)"><path id="path148" fill-rule="nonzero" fill="#646264" d="m0,0c-0.67,0.143,17.016-1.224,34.382-0.607,0,0,0.928,3.312,2.26,5.133,0,0-0.29-5.577,1.271-6.718,0,0-8.691-3.421-17.455-3.395,0,0,9.55,1.594,12.754,3.242,0,0-17.428-0.97-33.212,2.345"/></g></g></g></svg>
